<svg pointer-events="none" class="leaflet-zoom-animated" width="2281" height="586" viewBox="302 196 2281 586" style="transform: translate3d(302px, 196px, 0px);"><g><path stroke="none" fill="rgba(195,0,0,0.2)" fill-opacity="1" fill-rule="evenodd" d="M1450 288L1449 285L1441 292L1437 302L1444 303L1444 306L1448 308L1448 316L1456 305L1457 292L1454 292L1453 294L1453 291L1451 289z"></path><path stroke="none" fill="rgba(195,33,0,0.2)" fill-opacity="1" fill-rule="evenodd" d="M1252 544L1253 550L1251 551L1249 557L1244 558L1229 551L1204 554L1211 556L1218 555L1228 558L1216 558L1182 548L1162 544L1157 540L1157 534L1158 541L1189 550L1189 548L1175 540L1173 542L1167 541L1167 538L1169 537L1178 536L1180 532L1179 529L1177 530L1166 527L1165 528L1168 533L1167 534L1157 523L1166 522L1178 526L1192 528L1197 527L1200 525L1200 523L1205 521L1209 517L1214 516L1220 512L1224 512L1231 508L1239 509L1247 504L1252 504L1253 500L1255 499L1256 492L1260 489L1262 483L1268 477L1272 464L1279 465L1284 462L1287 458L1292 459L1297 456L1309 462L1311 465L1317 462L1323 462L1330 457L1332 457L1333 459L1345 458L1350 460L1352 465L1356 465L1359 462L1360 458L1363 459L1365 457L1365 454L1370 455L1371 453L1379 449L1384 449L1386 444L1389 442L1395 443L1405 460L1414 466L1424 476L1426 480L1431 480L1433 482L1434 487L1430 487L1430 489L1421 501L1419 502L1421 500L1418 496L1406 502L1401 506L1396 517L1394 517L1398 512L1392 507L1381 510L1377 513L1368 526L1366 526L1367 523L1368 524L1372 519L1370 515L1355 516L1333 534L1323 550L1314 554L1314 552L1317 549L1324 546L1329 538L1326 534L1321 536L1317 542L1311 543L1307 548L1309 559L1315 573L1313 575L1306 572L1306 565L1303 565L1297 559L1292 563L1284 555L1280 555L1273 551L1272 552L1263 546L1260 545L1258 547L1253 544z"></path><path stroke="none" fill="rgba(195,0,0,0.2)" fill-opacity="1" fill-rule="evenodd" d="M1528 385L1527 384L1530 378L1530 373L1532 373L1533 368L1540 371L1546 366L1544 362L1542 366L1535 363L1535 365L1535 363L1532 362L1531 358L1527 357L1529 353L1540 353L1544 344L1546 344L1549 340L1553 339L1551 337L1551 333L1544 325L1544 320L1550 317L1549 315L1540 315L1540 317L1534 318L1526 312L1524 306L1525 305L1517 303L1514 305L1510 304L1505 294L1502 298L1495 301L1493 300L1493 296L1489 296L1483 291L1484 288L1482 286L1481 290L1479 288L1475 290L1471 286L1470 288L1467 286L1465 280L1460 281L1460 285L1462 288L1457 292L1456 305L1448 317L1450 319L1450 323L1448 325L1448 333L1452 335L1451 340L1455 344L1454 352L1452 352L1451 355L1456 355L1458 359L1459 358L1460 360L1462 360L1464 362L1464 364L1462 365L1463 368L1464 369L1467 367L1477 378L1483 376L1491 377L1490 374L1496 374L1496 377L1498 379L1497 380L1501 381L1508 377L1508 374L1512 372L1514 376L1513 377L1519 382L1521 382L1520 383L1522 385L1528 385z"></path><path stroke="none" fill="rgba(195,0,0,0.2)" fill-opacity="1" fill-rule="evenodd" d="M1413 443L1396 443L1398 449L1405 460L1414 466L1424 476L1426 480L1431 480L1433 483L1445 470L1444 467L1447 461L1445 461L1442 457L1445 454L1441 452L1440 448L1434 446L1435 433L1430 431L1431 427L1427 429L1430 434L1427 437L1427 439L1425 439L1426 442L1425 443L1416 441L1415 443z"></path><path stroke="none" fill="rgba(195,0,0,0.2)" fill-opacity="1" fill-rule="evenodd" d="M1444 478L1442 481L1433 485L1433 483L1443 473L1443 475L1445 475L1445 478z"></path><path stroke="none" fill="rgba(195,0,0,0.2)" fill-opacity="1" fill-rule="evenodd" d="M1444 484L1442 481L1433 485L1437 488L1444 486z"></path><path stroke="none" fill="rgba(195,0,0,0.2)" fill-opacity="1" fill-rule="evenodd" d="M1448 408L1449 405L1441 407L1439 411L1436 410L1437 413L1439 413L1439 415L1441 413L1443 415L1445 413L1444 412L1449 409L1448 408z"></path><path stroke="none" fill="rgba(195,0,0,0.2)" fill-opacity="1" fill-rule="evenodd" d="M0 0"></path><path stroke="none" fill="rgba(195,0,0,0.2)" fill-opacity="1" fill-rule="evenodd" d="M1472 381L1471 384L1473 386L1469 396L1464 398L1465 400L1463 400L1460 397L1461 394L1460 397L1452 397L1450 399L1449 394L1451 388L1449 388L1449 384L1446 381L1448 377L1450 377L1453 374L1455 376L1459 376L1460 373L1461 374L1467 367L1477 378L1473 381z"></path><path stroke="none" fill="rgba(195,0,0,0.2)" fill-opacity="1" fill-rule="evenodd" d="M1443 416L1441 418L1440 417L1440 419L1442 419L1443 417z"></path><path stroke="none" fill="rgba(195,0,0,0.2)" fill-opacity="1" fill-rule="evenodd" d="M1437 422L1434 424L1433 423L1433 421L1435 421L1434 418L1437 417L1440 420L1438 420L1438 422z"></path><path stroke="rgba(166,26,13,0.6509803921568628)" stroke-opacity="1" stroke-width="1" stroke-linecap="butt" stroke-linejoin="miter" stroke-dasharray="10,5" fill="rgba(166,26,13,0.6509803921568628)" fill-opacity="0" fill-rule="evenodd" d="M1446 462L1444 472L1442 473L1445 475L1445 478L1442 481L1444 486L1456 486L1457 488L1455 491L1459 489L1462 485L1462 477L1465 477L1467 474L1467 472L1462 472L1462 470L1465 468L1464 456L1466 456L1467 451L1472 451L1472 449L1480 449L1482 448L1482 446L1487 447L1487 439L1491 434L1501 434L1504 436L1515 434L1516 437L1518 435L1521 437L1531 437L1535 428L1532 423L1537 422L1535 421L1537 419L1538 414L1540 413L1540 410L1543 410L1541 404L1539 406L1535 404L1540 401L1540 399L1538 399L1539 398L1535 393L1536 386L1524 386L1525 385L1522 384L1521 385L1521 383L1513 377L1514 376L1512 372L1510 374L1509 373L1509 375L1502 381L1498 380L1496 374L1490 374L1491 377L1478 377L1473 381L1471 385L1473 386L1469 396L1464 398L1465 400L1463 400L1460 397L1452 397L1447 402L1449 409L1444 413L1442 419L1432 424L1432 426L1429 429L1435 433L1434 445L1435 447L1441 449L1441 452L1444 454L1443 459L1447 461L1446 462z"></path><path stroke="none" fill="rgba(195,0,0,0.25098039215686274)" fill-opacity="1" fill-rule="evenodd" d="M1249 559L1253 565L1244 567L1234 573L1232 571L1229 576L1219 580L1214 586L1206 589L1199 596L1197 601L1205 604L1210 604L1216 601L1223 605L1231 615L1238 615L1242 613L1246 615L1250 622L1251 629L1247 636L1247 646L1238 650L1240 655L1248 658L1259 665L1274 664L1287 652L1291 645L1299 640L1320 637L1323 632L1331 629L1337 624L1335 621L1340 617L1349 624L1357 626L1376 624L1382 617L1381 611L1390 601L1390 597L1384 592L1360 591L1349 594L1346 600L1337 602L1324 588L1315 573L1313 575L1306 572L1306 565L1303 565L1300 561L1296 559L1292 563L1284 555L1279 555L1276 552L1272 552L1260 545L1258 547L1253 544L1253 550L1251 551L1251 554z"></path><path stroke="rgba(166,26,13,0.6509803921568628)" stroke-opacity="1" stroke-width="1" stroke-linecap="butt" stroke-linejoin="miter" stroke-dasharray="10,5" fill="rgba(166,26,13,0.6509803921568628)" fill-opacity="0" fill-rule="evenodd" d="M1249 559L1253 565L1244 567L1234 573L1232 571L1229 576L1219 580L1214 586L1206 589L1199 596L1197 601L1205 604L1210 604L1216 601L1223 605L1231 615L1238 615L1242 613L1246 615L1250 622L1251 629L1247 636L1247 646L1238 650L1240 655L1248 658L1259 665L1274 664L1287 652L1291 645L1299 640L1320 637L1323 632L1331 629L1337 624L1335 621L1340 617L1349 624L1357 626L1376 624L1382 617L1381 611L1390 601L1390 597L1384 592L1360 591L1349 594L1346 600L1337 602L1324 588L1315 573L1313 575L1306 572L1306 565L1303 565L1300 561L1296 559L1292 563L1284 555L1279 555L1276 552L1272 552L1260 545L1258 547L1253 544L1253 550L1251 551L1251 554z"></path><path stroke="none" fill="rgba(195,0,0,0.25098039215686274)" fill-opacity="1" fill-rule="evenodd" d="M1446 462L1444 472L1442 473L1445 475L1445 478L1442 481L1444 486L1456 486L1457 488L1455 491L1459 489L1462 485L1462 477L1465 477L1467 474L1467 472L1462 472L1462 470L1465 468L1464 456L1466 456L1467 451L1472 451L1472 449L1480 449L1482 448L1482 446L1487 447L1487 439L1491 434L1501 434L1504 436L1515 434L1516 437L1518 435L1521 437L1531 437L1535 428L1532 423L1537 422L1535 421L1537 419L1538 414L1540 413L1540 410L1543 410L1541 404L1539 406L1535 404L1540 401L1540 399L1538 399L1539 398L1535 393L1536 386L1524 386L1525 385L1522 384L1521 385L1521 383L1513 377L1514 376L1512 372L1510 374L1509 373L1509 375L1502 381L1498 380L1496 374L1490 374L1491 377L1478 377L1473 381L1471 385L1473 386L1469 396L1464 398L1465 400L1463 400L1460 397L1452 397L1447 402L1449 409L1444 413L1442 419L1432 424L1432 426L1429 429L1435 433L1434 445L1435 447L1441 449L1441 452L1444 454L1443 459L1447 461L1446 462z"></path><path stroke="none" fill="rgba(195,0,0,0.2)" fill-opacity="1" fill-rule="evenodd" d="M1448 317L1448 314L1447 316z"></path><path stroke="none" fill="rgba(195,0,0,0.2)" fill-opacity="1" fill-rule="evenodd" d="M1439 419L1439 419z"></path><path stroke="none" fill="rgba(195,0,0,0.2)" fill-opacity="1" fill-rule="evenodd" d="M1441 413L1441 414z"></path><path stroke="none" fill="rgba(195,0,0,0.2)" fill-opacity="1" fill-rule="evenodd" d="M1460 373L1460 374z"></path><path stroke="none" fill="rgba(195,0,0,0.2)" fill-opacity="1" fill-rule="evenodd" d="M1457 375L1460 374L1460 376L1458 376z"></path><path stroke="none" fill="rgba(195,0,0,0.2)" fill-opacity="1" fill-rule="evenodd" d="M1429 436L1429 436z"></path><path stroke="none" fill="rgba(195,0,0,0.2)" fill-opacity="1" fill-rule="evenodd" d="M1427 428L1428 428z"></path><path stroke="none" fill="rgba(195,0,0,0.2)" fill-opacity="1" fill-rule="evenodd" d="M1429 436L1429 435z"></path><path stroke="none" fill="rgba(195,0,0,0.2)" fill-opacity="1" fill-rule="evenodd" d="M1439 413L1439 414z"></path><path stroke="none" fill="rgba(195,0,0,0.2)" fill-opacity="1" fill-rule="evenodd" d="M1464 363L1464 362z"></path><path stroke="none" fill="rgba(195,0,0,0.2)" fill-opacity="1" fill-rule="evenodd" d="M1351 463L1352 464L1351 463z"></path><path stroke="none" fill="rgba(195,0,0,0.2)" fill-opacity="1" fill-rule="evenodd" d="M1449 386L1449 386z"></path><path stroke="none" fill="rgba(195,0,0,0.2)" fill-opacity="1" fill-rule="evenodd" d="M1448 384L1448 384z"></path><path stroke="none" fill="rgba(195,0,0,0.2)" fill-opacity="1" fill-rule="evenodd" d="M1428 430L1427 429L1428 430z"></path><path stroke="none" fill="rgba(195,0,0,0.2)" fill-opacity="1" fill-rule="evenodd" d="M1439 414L1439 415z"></path><path stroke="none" fill="rgba(195,0,0,0.2)" fill-opacity="1" fill-rule="evenodd" d="M1440 419L1440 418z"></path><path stroke="none" fill="rgba(195,0,0,0.2)" fill-opacity="1" fill-rule="evenodd" d="M1443 417L1442 416L1443 417z"></path><path stroke="none" fill="rgba(195,0,0,0.2)" fill-opacity="1" fill-rule="evenodd" d="M1439 415L1439 415z"></path><path stroke="none" fill="rgba(195,0,0,0.2)" fill-opacity="1" fill-rule="evenodd" d="M1439 415L1441 413L1439 414z"></path><path stroke="none" fill="rgba(195,0,0,0.2)" fill-opacity="1" fill-rule="evenodd" d="M1439 415L1441 418L1443 416L1441 414L1439 415z"></path><path stroke="none" fill="rgba(195,0,0,0.2)" fill-opacity="1" fill-rule="evenodd" d="M1438 413L1438 415L1438 413z"></path><path stroke="none" fill="rgba(195,0,0,0.2)" fill-opacity="1" fill-rule="evenodd" d="M1440 418L1438 418L1441 418z"></path><path stroke="none" fill="rgba(195,0,0,0.2)" fill-opacity="1" fill-rule="evenodd" d="M1352 464L1353 465L1352 464z"></path><path stroke="none" fill="rgba(195,0,0,0.2)" fill-opacity="1" fill-rule="evenodd" d="M1352 463L1353 464L1352 463z"></path><path stroke="none" fill="rgba(195,0,0,0.2)" fill-opacity="1" fill-rule="evenodd" d="M1439 417L1438 414L1440 417z"></path><path stroke="none" fill="rgba(195,0,0,0.2)" fill-opacity="1" fill-rule="evenodd" d="M1428 430L1427 431L1429 431L1428 430z"></path><path stroke="none" fill="rgba(195,0,0,0.2)" fill-opacity="1" fill-rule="evenodd" d="M1448 384L1447 383L1448 384z"></path><path stroke="none" fill="rgba(195,0,0,0.2)" fill-opacity="1" fill-rule="evenodd" d="M1449 387L1448 386L1449 387z"></path><path stroke="none" fill="rgba(195,0,0,0.2)" fill-opacity="1" fill-rule="evenodd" d="M1438 415L1438 415z"></path><path stroke="none" fill="rgba(195,0,0,0.2)" fill-opacity="1" fill-rule="evenodd" d="M1353 464L1352 463L1353 464z"></path><path stroke="none" fill="rgba(195,0,0,0.2)" fill-opacity="1" fill-rule="evenodd" d="M1448 384L1449 385L1448 384z"></path><path stroke="none" fill="rgba(195,0,0,0.2)" fill-opacity="1" fill-rule="evenodd" d="M1449 386L1448 385L1449 386z"></path><path stroke="none" fill="rgba(195,0,0,0.2)" fill-opacity="1" fill-rule="evenodd" d="M1436 418L1437 415L1438 416L1436 418z"></path><path stroke="none" fill="rgba(195,0,0,0.2)" fill-opacity="1" fill-rule="evenodd" d="M1437 413L1437 411L1438 413z"></path><path stroke="none" fill="rgba(195,0,0,0.2)" fill-opacity="1" fill-rule="evenodd" d="M1437 415L1437 413L1438 415z"></path><path stroke="none" fill="rgba(195,0,0,0.2)" fill-opacity="1" fill-rule="evenodd" d="M1437 415L1436 416L1437 415z"></path><path stroke="none" fill="rgba(195,0,0,0.2)" fill-opacity="1" fill-rule="evenodd" d="M1436 415L1437 414L1436 415z"></path><path stroke="none" fill="rgba(195,0,0,0.2)" fill-opacity="1" fill-rule="evenodd" d="M1435 415L1436 414z"></path><path stroke="none" fill="rgba(195,0,0,0.2)" fill-opacity="1" fill-rule="evenodd" d="M1436 417L1435 416L1437 415L1436 416z"></path><path stroke="none" fill="rgba(195,0,0,0.2)" fill-opacity="1" fill-rule="evenodd" d="M1428 436L1429 436z"></path><path stroke="none" fill="rgba(195,0,0,0.2)" fill-opacity="1" fill-rule="evenodd" d="M1427 437L1428 437z"></path><path stroke="none" fill="rgba(195,0,0,0.2)" fill-opacity="1" fill-rule="evenodd" d="M1355 464L1358 463L1356 464z"></path><path stroke="none" fill="rgba(195,0,0,0.2)" fill-opacity="1" fill-rule="evenodd" d="M1358 463L1357 462L1358 463z"></path><path stroke="none" fill="rgba(195,0,0,0.2)" fill-opacity="1" fill-rule="evenodd" d="M1427 428L1427 428z"></path><path stroke="none" fill="rgba(195,0,0,0.2)" fill-opacity="1" fill-rule="evenodd" d="M1435 416L1435 416z"></path><path stroke="none" fill="rgba(195,0,0,0.2)" fill-opacity="1" fill-rule="evenodd" d="M1435 418L1435 416L1436 418z"></path><path stroke="none" fill="rgba(195,0,0,0.2)" fill-opacity="1" fill-rule="evenodd" d="M1448 386L1449 386z"></path><path stroke="none" fill="rgba(195,0,0,0.2)" fill-opacity="1" fill-rule="evenodd" d="M1452 352L1451 351L1454 350L1453 352z"></path><path stroke="none" fill="rgba(195,0,0,0.2)" fill-opacity="1" fill-rule="evenodd" d="M1433 422L1433 422z"></path><path stroke="none" fill="rgba(195,0,0,0.2)" fill-opacity="1" fill-rule="evenodd" d="M1434 419L1434 420z"></path><path stroke="none" fill="rgba(195,0,0,0.2)" fill-opacity="1" fill-rule="evenodd" d="M1437 413L1435 413L1437 412z"></path><path stroke="none" fill="rgba(195,0,0,0.2)" fill-opacity="1" fill-rule="evenodd" d="M1433 422L1433 421z"></path><path stroke="none" fill="rgba(195,0,0,0.2)" fill-opacity="1" fill-rule="evenodd" d="M1435 416L1434 415L1435 416z"></path><path stroke="none" fill="rgba(195,0,0,0.2)" fill-opacity="1" fill-rule="evenodd" d="M1435 417L1435 417z"></path><path stroke="none" fill="rgba(195,0,0,0.2)" fill-opacity="1" fill-rule="evenodd" d="M1435 415L1436 414L1435 415z"></path><path stroke="none" fill="rgba(195,0,0,0.2)" fill-opacity="1" fill-rule="evenodd" d="M1447 383L1448 384L1447 383z"></path><path stroke="none" fill="rgba(195,0,0,0.2)" fill-opacity="1" fill-rule="evenodd" d="M1448 385L1448 385z"></path><path stroke="none" fill="rgba(195,0,0,0.2)" fill-opacity="1" fill-rule="evenodd" d="M1435 412L1437 412z"></path><path stroke="none" fill="rgba(195,0,0,0.2)" fill-opacity="1" fill-rule="evenodd" d="M1427 436L1428 436z"></path><path stroke="none" fill="rgba(195,0,0,0.2)" fill-opacity="1" fill-rule="evenodd" d="M1428 435L1429 435z"></path><path stroke="none" fill="rgba(195,0,0,0.2)" fill-opacity="1" fill-rule="evenodd" d="M1428 435L1428 435z"></path><path stroke="none" fill="rgba(195,0,0,0.2)" fill-opacity="1" fill-rule="evenodd" d="M1427 436L1426 435L1427 436z"></path><path stroke="none" fill="rgba(195,0,0,0.2)" fill-opacity="1" fill-rule="evenodd" d="M1428 435L1428 435z"></path><path stroke="none" fill="rgba(195,0,0,0.2)" fill-opacity="1" fill-rule="evenodd" d="M1434 418L1434 418z"></path><path stroke="none" fill="rgba(195,0,0,0.2)" fill-opacity="1" fill-rule="evenodd" d="M1434 419L1435 420z"></path><path stroke="none" fill="rgba(195,0,0,0.2)" fill-opacity="1" fill-rule="evenodd" d="M1434 416L1434 415z"></path><path stroke="none" fill="rgba(195,0,0,0.2)" fill-opacity="1" fill-rule="evenodd" d="M1448 386L1448 386z"></path><path stroke="none" fill="rgba(195,0,0,0.2)" fill-opacity="1" fill-rule="evenodd" d="M1447 384L1446 385L1447 384z"></path><path stroke="none" fill="rgba(195,0,0,0.2)" fill-opacity="1" fill-rule="evenodd" d="M1447 386L1448 386z"></path><path stroke="none" fill="rgba(195,0,0,0.2)" fill-opacity="1" fill-rule="evenodd" d="M1435 414L1436 413L1435 414z"></path><path stroke="none" fill="rgba(195,0,0,0.2)" fill-opacity="1" fill-rule="evenodd" d="M1435 416L1436 416z"></path><path stroke="none" fill="rgba(195,0,0,0.2)" fill-opacity="1" fill-rule="evenodd" d="M1433 418L1434 419z"></path><path stroke="none" fill="rgba(195,0,0,0.2)" fill-opacity="1" fill-rule="evenodd" d="M1435 412L1436 412z"></path><path stroke="none" fill="rgba(195,0,0,0.2)" fill-opacity="1" fill-rule="evenodd" d="M1433 418L1433 418z"></path><path stroke="none" fill="rgba(195,0,0,0.2)" fill-opacity="1" fill-rule="evenodd" d="M1447 384L1446 383L1447 384z"></path><path stroke="none" fill="rgba(195,0,0,0.2)" fill-opacity="1" fill-rule="evenodd" d="M1433 419L1432 418L1433 419z"></path><path stroke="none" fill="rgba(195,0,0,0.2)" fill-opacity="1" fill-rule="evenodd" d="M1430 427L1432 427L1430 427z"></path><path stroke="none" fill="rgba(195,0,0,0.2)" fill-opacity="1" fill-rule="evenodd" d="M1432 418L1432 416L1435 417L1432 418z"></path><path stroke="none" fill="rgba(195,0,0,0.2)" fill-opacity="1" fill-rule="evenodd" d="M1437 411L1435 411L1437 412z"></path><path stroke="none" fill="rgba(195,0,0,0.2)" fill-opacity="1" fill-rule="evenodd" d="M1436 411L1436 410z"></path><path stroke="none" fill="rgba(195,0,0,0.2)" fill-opacity="1" fill-rule="evenodd" d="M1446 384L1447 384z"></path><path stroke="none" fill="rgba(195,0,0,0.2)" fill-opacity="1" fill-rule="evenodd" d="M1447 385L1448 385z"></path><path stroke="none" fill="rgba(195,0,0,0.2)" fill-opacity="1" fill-rule="evenodd" d="M1436 411L1435 412L1436 411z"></path><path stroke="none" fill="rgba(195,0,0,0.2)" fill-opacity="1" fill-rule="evenodd" d="M1435 413L1435 413z"></path><path stroke="none" fill="rgba(195,0,0,0.2)" fill-opacity="1" fill-rule="evenodd" d="M1429 427L1430 426L1429 427z"></path><path stroke="none" fill="rgba(195,0,0,0.2)" fill-opacity="1" fill-rule="evenodd" d="M1430 426L1430 426z"></path><path stroke="none" fill="rgba(195,0,0,0.2)" fill-opacity="1" fill-rule="evenodd" d="M1430 426L1429 425L1430 426z"></path><path stroke="none" fill="rgba(195,0,0,0.2)" fill-opacity="1" fill-rule="evenodd" d="M1435 410L1434 409L1436 410z"></path><path stroke="none" fill="rgba(195,0,0,0.2)" fill-opacity="1" fill-rule="evenodd" d="M1446 383L1446 384z"></path><path stroke="none" fill="rgba(195,0,0,0.2)" fill-opacity="1" fill-rule="evenodd" d="M1434 409L1434 409z"></path><path stroke="none" fill="rgba(195,0,0,0.2)" fill-opacity="1" fill-rule="evenodd" d="M1434 409L1434 409z"></path><path stroke="none" fill="rgba(195,0,0,0.2)" fill-opacity="1" fill-rule="evenodd" d="M1426 435L1427 435z"></path><path stroke="none" fill="rgba(195,0,0,0.2)" fill-opacity="1" fill-rule="evenodd" d="M1435 410L1433 410L1435 410z"></path><path stroke="none" fill="rgba(195,0,0,0.2)" fill-opacity="1" fill-rule="evenodd" d="M1433 410L1433 410z"></path><path stroke="none" fill="rgba(195,0,0,0.2)" fill-opacity="1" fill-rule="evenodd" d="M1435 413L1435 413z"></path><path stroke="none" fill="rgba(195,0,0,0.2)" fill-opacity="1" fill-rule="evenodd" d="M1433 419L1431 418L1433 419z"></path><path stroke="none" fill="rgba(195,0,0,0.2)" fill-opacity="1" fill-rule="evenodd" d="M1448 312L1448 312z"></path><path stroke="none" fill="rgba(195,0,0,0.2)" fill-opacity="1" fill-rule="evenodd" d="M1434 409L1434 409z"></path><path stroke="none" fill="rgba(195,0,0,0.2)" fill-opacity="1" fill-rule="evenodd" d="M1434 409L1433 408L1434 409z"></path><path stroke="none" fill="rgba(195,0,0,0.2)" fill-opacity="1" fill-rule="evenodd" d="M1431 425L1431 425z"></path><path stroke="none" fill="rgba(195,0,0,0.2)" fill-opacity="1" fill-rule="evenodd" d="M1434 409L1433 408L1434 409z"></path><path stroke="none" fill="rgba(195,0,0,0.2)" fill-opacity="1" fill-rule="evenodd" d="M1448 386L1446 386L1447 385z"></path><path stroke="none" fill="rgba(195,0,0,0.2)" fill-opacity="1" fill-rule="evenodd" d="M1447 312L1448 312z"></path><path stroke="none" fill="rgba(195,0,0,0.2)" fill-opacity="1" fill-rule="evenodd" d="M1434 408L1434 409z"></path><path stroke="none" fill="rgba(195,0,0,0.2)" fill-opacity="1" fill-rule="evenodd" d="M1427 435L1427 435z"></path><path stroke="none" fill="rgba(195,0,0,0.2)" fill-opacity="1" fill-rule="evenodd" d="M1438 410L1438 408L1435 407L1440 408L1439 411z"></path><path stroke="none" fill="rgba(195,0,0,0.2)" fill-opacity="1" fill-rule="evenodd" d="M1429 425L1429 425z"></path><path stroke="none" fill="rgba(195,0,0,0.2)" fill-opacity="1" fill-rule="evenodd" d="M1431 427L1432 427z"></path><path stroke="none" fill="rgba(195,0,0,0.2)" fill-opacity="1" fill-rule="evenodd" d="M1434 409L1436 407L1438 409L1434 409z"></path><path stroke="none" fill="rgba(195,0,0,0.2)" fill-opacity="1" fill-rule="evenodd" d="M1448 313L1447 312L1448 313z"></path><path stroke="none" fill="rgba(195,0,0,0.2)" fill-opacity="1" fill-rule="evenodd" d="M1433 408L1433 408z"></path><path stroke="none" fill="rgba(195,0,0,0.2)" fill-opacity="1" fill-rule="evenodd" d="M1353 463L1353 464z"></path><path stroke="none" fill="rgba(195,0,0,0.2)" fill-opacity="1" fill-rule="evenodd" d="M1435 408L1432 407L1434 409L1435 408z"></path><path stroke="none" fill="rgba(195,0,0,0.2)" fill-opacity="1" fill-rule="evenodd" d="M1434 410L1435 412L1434 410z"></path><path stroke="none" fill="rgba(195,0,0,0.2)" fill-opacity="1" fill-rule="evenodd" d="M1433 415L1431 415L1433 415z"></path><path stroke="none" fill="rgba(195,0,0,0.2)" fill-opacity="1" fill-rule="evenodd" d="M1431 425L1431 427L1431 425z"></path><path stroke="none" fill="rgba(195,0,0,0.2)" fill-opacity="1" fill-rule="evenodd" d="M1431 418L1431 418z"></path><path stroke="none" fill="rgba(195,0,0,0.2)" fill-opacity="1" fill-rule="evenodd" d="M1384 266L1382 268L1377 265L1379 265L1380 263L1384 266z"></path><path stroke="none" fill="rgba(195,0,0,0.2)" fill-opacity="1" fill-rule="evenodd" d="M1397 265L1402 266L1405 262L1400 262L1397 265z"></path><path stroke="none" fill="rgba(195,0,0,0.2)" fill-opacity="1" fill-rule="evenodd" d="M1383 268L1386 269L1387 266L1383 267z"></path><path stroke="none" fill="rgba(195,0,0,0.2)" fill-opacity="1" fill-rule="evenodd" d="M1402 266L1402 265z"></path><path stroke="none" fill="rgba(195,0,0,0.2)" fill-opacity="1" fill-rule="evenodd" d="M1383 268L1384 269z"></path><path stroke="none" fill="rgba(195,0,0,0.2)" fill-opacity="1" fill-rule="evenodd" d="M1397 265L1395 265L1398 269L1400 267L1397 265z"></path><path stroke="none" fill="rgba(195,0,0,0.2)" fill-opacity="1" fill-rule="evenodd" d="M1403 264L1404 265L1406 263L1405 262L1403 264z"></path><path stroke="none" fill="rgba(195,0,0,0.2)" fill-opacity="1" fill-rule="evenodd" d="M1378 267L1381 268L1379 267z"></path><path stroke="none" fill="rgba(195,0,0,0.2)" fill-opacity="1" fill-rule="evenodd" d="M1382 268L1383 268z"></path><path stroke="none" fill="rgba(195,0,0,0.2)" fill-opacity="1" fill-rule="evenodd" d="M1402 266L1403 265z"></path><path stroke="none" fill="rgba(195,0,0,0.2)" fill-opacity="1" fill-rule="evenodd" d="M1382 269L1382 271L1380 268L1382 269z"></path><path stroke="none" fill="rgba(195,0,0,0.2)" fill-opacity="1" fill-rule="evenodd" d="M1432 416L1431 415L1433 416z"></path><path stroke="none" fill="rgba(195,0,0,0.2)" fill-opacity="1" fill-rule="evenodd" d="M1431 418L1431 418z"></path><path stroke="none" fill="rgba(195,0,0,0.2)" fill-opacity="1" fill-rule="evenodd" d="M1353 463L1352 462L1353 463z"></path><path stroke="none" fill="rgba(195,0,0,0.2)" fill-opacity="1" fill-rule="evenodd" d="M1427 435L1426 434L1427 435z"></path><path stroke="none" fill="rgba(195,0,0,0.2)" fill-opacity="1" fill-rule="evenodd" d="M1403 266L1403 266z"></path><path stroke="none" fill="rgba(195,0,0,0.2)" fill-opacity="1" fill-rule="evenodd" d="M1449 388L1451 390L1451 388L1449 388z"></path><path stroke="none" fill="rgba(195,0,0,0.2)" fill-opacity="1" fill-rule="evenodd" d="M1432 407L1433 407z"></path><path stroke="none" fill="rgba(195,0,0,0.2)" fill-opacity="1" fill-rule="evenodd" d="M1396 443L1397 442L1396 443z"></path><path stroke="none" fill="rgba(195,0,0,0.2)" fill-opacity="1" fill-rule="evenodd" d="M1397 443L1399 443L1397 443z"></path><path stroke="none" fill="rgba(195,0,0,0.2)" fill-opacity="1" fill-rule="evenodd" d="M1429 426L1429 425z"></path><path stroke="none" fill="rgba(195,0,0,0.2)" fill-opacity="1" fill-rule="evenodd" d="M1430 425L1431 425z"></path><path stroke="none" fill="rgba(195,0,0,0.2)" fill-opacity="1" fill-rule="evenodd" d="M1429 425L1430 426L1429 425z"></path><path stroke="none" fill="rgba(195,0,0,0.2)" fill-opacity="1" fill-rule="evenodd" d="M1403 266L1403 266z"></path><path stroke="none" fill="rgba(195,0,0,0.2)" fill-opacity="1" fill-rule="evenodd" d="M1432 408L1432 408z"></path><path stroke="none" fill="rgba(195,0,0,0.2)" fill-opacity="1" fill-rule="evenodd" d="M1433 408L1433 409z"></path><path stroke="none" fill="rgba(195,0,0,0.2)" fill-opacity="1" fill-rule="evenodd" d="M1452 339L1451 336L1452 338z"></path><path stroke="none" fill="rgba(195,0,0,0.2)" fill-opacity="1" fill-rule="evenodd" d="M1430 418L1429 417L1431 418z"></path><path stroke="none" fill="rgba(195,0,0,0.2)" fill-opacity="1" fill-rule="evenodd" d="M1431 418L1431 416L1431 418z"></path><path stroke="none" fill="rgba(195,0,0,0.2)" fill-opacity="1" fill-rule="evenodd" d="M1426 435L1426 434z"></path><path stroke="none" fill="rgba(195,0,0,0.2)" fill-opacity="1" fill-rule="evenodd" d="M1446 386L1447 385L1446 386z"></path><path stroke="none" fill="rgba(195,0,0,0.2)" fill-opacity="1" fill-rule="evenodd" d="M1397 269L1397 269z"></path><path stroke="none" fill="rgba(195,0,0,0.2)" fill-opacity="1" fill-rule="evenodd" d="M1432 410L1432 409z"></path><path stroke="none" fill="rgba(195,0,0,0.2)" fill-opacity="1" fill-rule="evenodd" d="M1435 414L1434 415z"></path><path stroke="none" fill="rgba(195,0,0,0.2)" fill-opacity="1" fill-rule="evenodd" d="M1446 385L1446 385z"></path><path stroke="none" fill="rgba(195,0,0,0.2)" fill-opacity="1" fill-rule="evenodd" d="M1281 196L1281 196z"></path><path stroke="none" fill="rgba(195,0,0,0.2)" fill-opacity="1" fill-rule="evenodd" d="M1396 443L1397 442z"></path><path stroke="none" fill="rgba(195,0,0,0.2)" fill-opacity="1" fill-rule="evenodd" d="M1397 443L1398 442L1397 443z"></path><path stroke="none" fill="rgba(195,0,0,0.2)" fill-opacity="1" fill-rule="evenodd" d="M1433 410L1432 415L1435 414L1433 410z"></path><path stroke="none" fill="rgba(195,0,0,0.2)" fill-opacity="1" fill-rule="evenodd" d="M1432 413L1432 411L1433 413z"></path><path stroke="none" fill="rgba(195,0,0,0.2)" fill-opacity="1" fill-rule="evenodd" d="M1427 428L1426 427L1427 428z"></path><path stroke="none" fill="rgba(195,0,0,0.2)" fill-opacity="1" fill-rule="evenodd" d="M1432 411L1433 410L1432 411z"></path><path stroke="none" fill="rgba(195,0,0,0.2)" fill-opacity="1" fill-rule="evenodd" d="M1429 425L1429 425z"></path><path stroke="none" fill="rgba(195,0,0,0.2)" fill-opacity="1" fill-rule="evenodd" d="M0 0"></path><path stroke="none" fill="rgba(195,0,0,0.2)" fill-opacity="1" fill-rule="evenodd" d="M1432 407L1431 406L1432 407z"></path><path stroke="none" fill="rgba(195,0,0,0.2)" fill-opacity="1" fill-rule="evenodd" d="M1432 408L1432 408z"></path><path stroke="none" fill="rgba(195,0,0,0.2)" fill-opacity="1" fill-rule="evenodd" d="M1432 409L1431 408L1433 408L1433 410L1432 409z"></path><path stroke="none" fill="rgba(195,0,0,0.2)" fill-opacity="1" fill-rule="evenodd" d="M1429 417L1431 417L1430 418z"></path><path stroke="none" fill="rgba(195,0,0,0.2)" fill-opacity="1" fill-rule="evenodd" d="M1454 374L1457 375L1456 376L1454 374z"></path><path stroke="none" fill="rgba(195,0,0,0.2)" fill-opacity="1" fill-rule="evenodd" d="M1450 398L1449 397L1450 398z"></path><path stroke="none" fill="rgba(195,0,0,0.2)" fill-opacity="1" fill-rule="evenodd" d="M1446 385L1446 385z"></path><path stroke="none" fill="rgba(195,0,0,0.2)" fill-opacity="1" fill-rule="evenodd" d="M1441 303L1441 305L1444 303L1442 302z"></path><path stroke="none" fill="rgba(195,0,0,0.2)" fill-opacity="1" fill-rule="evenodd" d="M1446 385L1446 385z"></path><path stroke="none" fill="rgba(195,0,0,0.2)" fill-opacity="1" fill-rule="evenodd" d="M1450 399L1448 397L1449 399z"></path><path stroke="none" fill="rgba(195,0,0,0.2)" fill-opacity="1" fill-rule="evenodd" d="M1448 401L1447 400L1449 398L1449 401z"></path><path stroke="none" fill="rgba(195,0,0,0.2)" fill-opacity="1" fill-rule="evenodd" d="M1432 410L1431 409L1432 410z"></path><path stroke="none" fill="rgba(195,0,0,0.2)" fill-opacity="1" fill-rule="evenodd" d="M1445 406L1445 404L1445 406z"></path><path stroke="none" fill="rgba(195,0,0,0.2)" fill-opacity="1" fill-rule="evenodd" d="M1444 404L1444 404z"></path><path stroke="none" fill="rgba(195,0,0,0.2)" fill-opacity="1" fill-rule="evenodd" d="M1431 415L1431 413L1428 410L1426 410L1431 405L1431 415z"></path><path stroke="none" fill="rgba(195,0,0,0.2)" fill-opacity="1" fill-rule="evenodd" d="M1445 404L1447 404L1447 406L1445 405z"></path><path stroke="none" fill="rgba(195,0,0,0.2)" fill-opacity="1" fill-rule="evenodd" d="M1447 399L1449 399L1448 398L1447 400z"></path><path stroke="none" fill="rgba(195,0,0,0.2)" fill-opacity="1" fill-rule="evenodd" d="M1446 385L1446 383L1446 385z"></path><path stroke="none" fill="rgba(195,0,0,0.2)" fill-opacity="1" fill-rule="evenodd" d="M1455 374L1458 374L1455 374z"></path><path stroke="none" fill="rgba(195,0,0,0.2)" fill-opacity="1" fill-rule="evenodd" d="M1463 371L1462 370L1460 373L1461 374L1463 371z"></path><path stroke="none" fill="rgba(195,0,0,0.2)" fill-opacity="1" fill-rule="evenodd" d="M1449 320L1444 317L1447 316L1450 320z"></path><path stroke="none" fill="rgba(195,0,0,0.2)" fill-opacity="1" fill-rule="evenodd" d="M1447 312L1446 311L1448 311L1447 312z"></path><path stroke="none" fill="rgba(195,0,0,0.2)" fill-opacity="1" fill-rule="evenodd" d="M1428 425L1429 424L1431 426L1429 425z"></path><path stroke="none" fill="rgba(195,0,0,0.2)" fill-opacity="1" fill-rule="evenodd" d="M1426 428L1425 427L1426 428z"></path><path stroke="none" fill="rgba(195,0,0,0.2)" fill-opacity="1" fill-rule="evenodd" d="M1426 441L1422 440L1426 440z"></path><path stroke="none" fill="rgba(195,0,0,0.2)" fill-opacity="1" fill-rule="evenodd" d="M1397 442L1398 441L1397 442z"></path><path stroke="none" fill="rgba(40,144,160,0.2)" fill-opacity="1" fill-rule="evenodd" d="M1329 209L1325 212L1322 209L1322 199L1319 198L1317 200L1315 198L1316 193L1332 193L1333 201L1330 210z"></path><path stroke="none" fill="rgba(40,144,160,0.2)" fill-opacity="1" fill-rule="evenodd" d="M1334 244L1335 243L1337 245L1335 250L1333 245L1334 244z"></path><path stroke="none" fill="rgba(195,0,0,0.2)" fill-opacity="1" fill-rule="evenodd" d="M1379 268L1381 269L1380 268z"></path><path stroke="none" fill="rgba(195,0,0,0.2)" fill-opacity="1" fill-rule="evenodd" d="M1454 342L1451 341L1454 341z"></path><path stroke="none" fill="rgba(195,0,0,0.2)" fill-opacity="1" fill-rule="evenodd" d="M1426 435L1425 434L1427 435z"></path><path stroke="none" fill="rgba(195,0,0,0.2)" fill-opacity="1" fill-rule="evenodd" d="M1430 413L1431 417L1429 417L1426 412L1422 412L1422 410L1428 407L1428 409L1426 410L1430 412z"></path><path stroke="none" fill="rgba(195,0,0,0.2)" fill-opacity="1" fill-rule="evenodd" d="M1407 443L1408 440L1415 441L1415 443L1407 443z"></path><path stroke="none" fill="rgba(195,0,0,0.2)" fill-opacity="1" fill-rule="evenodd" d="M1425 440L1426 441L1424 443L1420 441L1421 439L1424 441z"></path><path stroke="none" fill="rgba(195,0,0,0.2)" fill-opacity="1" fill-rule="evenodd" d="M1429 418L1423 416L1422 412L1428 413L1429 418z"></path><path stroke="none" fill="rgba(195,0,0,0.2)" fill-opacity="1" fill-rule="evenodd" d="M1422 413L1420 410L1422 410L1422 412z"></path><path stroke="none" fill="rgba(195,0,0,0.2)" fill-opacity="1" fill-rule="evenodd" d="M1428 418L1427 419L1424 417L1427 417z"></path><path stroke="none" fill="rgba(195,0,0,0.2)" fill-opacity="1" fill-rule="evenodd" d="M1447 401L1445 401L1445 399L1446 400z"></path><path stroke="none" fill="rgba(195,0,0,0.2)" fill-opacity="1" fill-rule="evenodd" d="M1379 268L1381 269z"></path><path stroke="none" fill="rgba(195,0,0,0.2)" fill-opacity="1" fill-rule="evenodd" d="M1379 268L1379 268z"></path><path stroke="none" fill="rgba(195,0,0,0.2)" fill-opacity="1" fill-rule="evenodd" d="M1395 266L1394 267L1397 270L1396 266z"></path><path stroke="none" fill="rgba(195,0,0,0.2)" fill-opacity="1" fill-rule="evenodd" d="M1437 302L1438 304L1441 303L1438 303z"></path><path stroke="none" fill="rgba(195,0,0,0.2)" fill-opacity="1" fill-rule="evenodd" d="M1445 318L1444 317z"></path><path stroke="none" fill="rgba(195,0,0,0.2)" fill-opacity="1" fill-rule="evenodd" d="M1448 320L1448 323L1450 324L1451 323L1449 320z"></path><path stroke="none" fill="rgba(195,0,0,0.2)" fill-opacity="1" fill-rule="evenodd" d="M1449 321L1447 325L1449 324L1448 323z"></path><path stroke="none" fill="rgba(195,0,0,0.2)" fill-opacity="1" fill-rule="evenodd" d="M1451 341L1452 339L1451 340z"></path><path stroke="none" fill="rgba(195,0,0,0.2)" fill-opacity="1" fill-rule="evenodd" d="M1450 391L1450 389L1451 390z"></path><path stroke="none" fill="rgba(195,0,0,0.2)" fill-opacity="1" fill-rule="evenodd" d="M1444 403L1448 403L1444 403z"></path><path stroke="none" fill="rgba(195,0,0,0.2)" fill-opacity="1" fill-rule="evenodd" d="M1445 401L1448 402L1447 401z"></path><path stroke="none" fill="rgba(195,0,0,0.2)" fill-opacity="1" fill-rule="evenodd" d="M1446 402L1447 402z"></path><path stroke="none" fill="rgba(195,0,0,0.2)" fill-opacity="1" fill-rule="evenodd" d="M1427 434L1429 432L1428 435z"></path><path stroke="none" fill="rgba(195,0,0,0.2)" fill-opacity="1" fill-rule="evenodd" d="M1426 434L1424 434L1426 436L1426 434z"></path><path stroke="none" fill="rgba(195,0,0,0.2)" fill-opacity="1" fill-rule="evenodd" d="M1422 439L1421 438L1424 435L1427 438L1425 440z"></path><path stroke="none" fill="rgba(40,144,160,0.2)" fill-opacity="1" fill-rule="evenodd" d="M1294 197L1297 197L1297 194L1295 195z"></path><path stroke="none" fill="rgba(195,0,0,0.2)" fill-opacity="1" fill-rule="evenodd" d="M1444 316L1443 314L1440 318L1443 320L1443 317z"></path><path stroke="none" fill="rgba(195,0,0,0.2)" fill-opacity="1" fill-rule="evenodd" d="M1451 340L1451 342L1454 342L1451 341z"></path><path stroke="none" fill="rgba(195,0,0,0.2)" fill-opacity="1" fill-rule="evenodd" d="M1454 344L1453 343L1453 345L1450 346L1452 347L1455 346L1454 345z"></path><path stroke="none" fill="rgba(195,0,0,0.2)" fill-opacity="1" fill-rule="evenodd" d="M1461 360L1462 360z"></path><path stroke="none" fill="rgba(195,0,0,0.2)" fill-opacity="1" fill-rule="evenodd" d="M1462 370L1463 369L1463 371z"></path><path stroke="none" fill="rgba(195,0,0,0.2)" fill-opacity="1" fill-rule="evenodd" d="M1446 382L1444 383L1445 384L1447 382z"></path><path stroke="none" fill="rgba(195,0,0,0.2)" fill-opacity="1" fill-rule="evenodd" d="M1445 384L1444 383L1445 384z"></path><path stroke="none" fill="rgba(195,0,0,0.2)" fill-opacity="1" fill-rule="evenodd" d="M1444 403L1443 402L1445 401L1446 402L1444 403z"></path><path stroke="none" fill="rgba(195,0,0,0.2)" fill-opacity="1" fill-rule="evenodd" d="M1445 399L1448 398L1446 400z"></path><path stroke="none" fill="rgba(195,0,0,0.2)" fill-opacity="1" fill-rule="evenodd" d="M1424 408L1423 407L1420 410L1424 410L1424 408z"></path><path stroke="none" fill="rgba(195,0,0,0.2)" fill-opacity="1" fill-rule="evenodd" d="M1421 412L1420 413L1422 416L1424 416L1422 413z"></path><path stroke="none" fill="rgba(195,0,0,0.2)" fill-opacity="1" fill-rule="evenodd" d="M1426 419L1420 420L1419 417L1424 417z"></path><path stroke="none" fill="rgba(195,0,0,0.2)" fill-opacity="1" fill-rule="evenodd" d="M1425 427L1424 426L1426 424L1429 424L1429 428L1426 427z"></path><path stroke="none" fill="rgba(195,0,0,0.2)" fill-opacity="1" fill-rule="evenodd" d="M1427 424L1431 422L1431 420L1428 418L1434 419L1435 421L1432 421L1433 423L1431 425L1429 424z"></path><path stroke="none" fill="rgba(195,0,0,0.2)" fill-opacity="1" fill-rule="evenodd" d="M1427 431L1426 428L1428 430L1427 431z"></path><path stroke="none" fill="rgba(195,0,0,0.2)" fill-opacity="1" fill-rule="evenodd" d="M1425 434L1427 431L1427 435L1426 434z"></path><path stroke="none" fill="rgba(195,0,0,0.2)" fill-opacity="1" fill-rule="evenodd" d="M1422 437L1420 437L1419 440L1417 440L1416 442L1418 442L1421 439L1422 440L1421 438z"></path><path stroke="none" fill="rgba(195,0,0,0.2)" fill-opacity="1" fill-rule="evenodd" d="M1411 440L1412 439L1413 441z"></path><path stroke="none" fill="rgba(195,0,0,0.2)" fill-opacity="1" fill-rule="evenodd" d="M1413 440L1417 440L1416 442L1413 441z"></path><path stroke="none" fill="rgba(195,0,0,0.2)" fill-opacity="1" fill-rule="evenodd" d="M1397 442L1397 442z"></path><path stroke="none" fill="rgba(195,0,0,0.2)" fill-opacity="1" fill-rule="evenodd" d="M1441 317L1437 317L1439 321L1441 318z"></path><path stroke="none" fill="rgba(195,0,0,0.2)" fill-opacity="1" fill-rule="evenodd" d="M1448 328L1448 330L1445 330L1449 327z"></path><path stroke="none" fill="rgba(195,0,0,0.2)" fill-opacity="1" fill-rule="evenodd" d="M1450 347L1452 351L1455 347L1452 347z"></path><path stroke="none" fill="rgba(195,0,0,0.2)" fill-opacity="1" fill-rule="evenodd" d="M1448 386L1445 387L1447 389L1449 387L1447 387L1448 386z"></path><path stroke="none" fill="rgba(195,0,0,0.2)" fill-opacity="1" fill-rule="evenodd" d="M1444 383L1445 382z"></path><path stroke="none" fill="rgba(195,0,0,0.2)" fill-opacity="1" fill-rule="evenodd" d="M1443 402L1444 402z"></path><path stroke="none" fill="rgba(195,0,0,0.2)" fill-opacity="1" fill-rule="evenodd" d="M1447 398L1448 398z"></path><path stroke="none" fill="rgba(195,0,0,0.2)" fill-opacity="1" fill-rule="evenodd" d="M1424 426L1420 420L1425 420L1428 418L1431 420L1431 422L1429 422L1425 426L1424 425z"></path><path stroke="none" fill="rgba(195,0,0,0.2)" fill-opacity="1" fill-rule="evenodd" d="M1420 420L1418 421L1416 419L1419 417L1420 420z"></path><path stroke="none" fill="rgba(195,0,0,0.2)" fill-opacity="1" fill-rule="evenodd" d="M1420 410L1418 411L1419 412L1417 418L1421 418L1421 411z"></path><path stroke="none" fill="rgba(195,0,0,0.2)" fill-opacity="1" fill-rule="evenodd" d="M1425 428L1422 427L1423 425L1425 427z"></path><path stroke="none" fill="rgba(195,0,0,0.2)" fill-opacity="1" fill-rule="evenodd" d="M1420 437L1421 434L1425 433L1424 432L1426 430L1427 431L1422 437z"></path><path stroke="none" fill="rgba(195,0,0,0.2)" fill-opacity="1" fill-rule="evenodd" d="M1404 442L1407 433L1411 435L1421 435L1419 440L1412 439L1409 440L1407 443L1405 442z"></path></g></svg>
